<svg width="266" height="65" viewBox="0 0 266 65" fill="none" xmlns="http://www.w3.org/2000/svg">
<path d="M0.253125 33.44H14.2531V42.24C14.2531 43.4133 14.9198 44 16.2531 44H17.1331C18.4665 44 19.1331 43.4133 19.1331 42.24V2.64H33.1331V44.08C33.1331 50.6933 29.2131 54 21.3731 54H12.0131C4.17313 54 0.253125 50.6933 0.253125 44.08V33.44ZM50.1756 14.08H60.3356C64.389 14.08 67.2956 14.9333 69.0556 16.64C70.8156 18.3467 71.6956 20.8 71.6956 24V44.08C71.6956 47.28 70.8156 49.7333 69.0556 51.44C67.2956 53.1467 64.389 54 60.3356 54H50.1756C46.1223 54 43.2156 53.1467 41.4556 51.44C39.6956 49.7333 38.8156 47.28 38.8156 44.08V24C38.8156 20.8 39.6956 18.3467 41.4556 16.64C43.2156 14.9333 46.1223 14.08 50.1756 14.08ZM58.3356 42.8V25.28C58.3356 24.1067 57.669 23.52 56.3356 23.52H54.1756C52.8423 23.52 52.1756 24.1067 52.1756 25.28V42.8C52.1756 43.9733 52.8423 44.56 54.1756 44.56H56.3356C57.669 44.56 58.3356 43.9733 58.3356 42.8ZM86.5313 64.32H79.8112V54.48H85.7313C87.0113 54.48 88.0246 54.2667 88.7713 53.84C89.5179 53.4133 90.1579 52.4 90.6913 50.8H85.4913L74.5312 14.08H88.7713L93.6513 38.4L97.9713 14.08H111.651L101.651 53.2C100.531 56.88 98.8246 59.6533 96.5313 61.52C94.2379 63.3867 90.9046 64.32 86.5313 64.32ZM132.041 43.44V40.24C132.041 39.0667 131.374 38.48 130.041 38.48H125.161C117.481 38.48 113.641 35.2 113.641 28.64V24C113.641 17.3867 117.561 14.08 125.401 14.08H132.841C140.681 14.08 144.601 17.3867 144.601 24V27.36H131.641V24.64C131.641 23.4667 130.974 22.88 129.641 22.88H128.841C127.507 22.88 126.841 23.4667 126.841 24.64V28.16C126.841 29.3333 127.507 29.92 128.841 29.92H133.721C137.827 29.92 140.761 30.7733 142.521 32.48C144.334 34.1333 145.241 36.5333 145.241 39.68V44.08C145.241 50.6933 141.321 54 133.481 54H125.641C117.801 54 113.881 50.6933 113.881 44.08V40.8H127.081V43.44C127.081 44.6133 127.747 45.2 129.081 45.2H130.041C131.374 45.2 132.041 44.6133 132.041 43.44ZM170.706 24.08H165.666V42.24C165.666 43.4133 166.332 44 167.666 44H170.626V54H163.826C155.986 54 152.066 50.6933 152.066 44.08V24.08H147.666V14.08H152.066V6.24H165.666V14.08H170.706V24.08ZM174.444 10.08V0.479998H188.524V10.08H174.444ZM188.284 54H174.684V14.08H188.284V54ZM225.964 29.52H212.844V25.84C212.844 24.6667 212.178 24.08 210.844 24.08H209.484C208.151 24.08 207.484 24.6667 207.484 25.84V42.24C207.484 43.4133 208.151 44 209.484 44H210.844C212.178 44 212.844 43.4133 212.844 42.24V38.56H225.964V44.08C225.964 50.6933 222.044 54 214.204 54H205.644C197.804 54 193.884 50.6933 193.884 44.08V24C193.884 17.3867 197.804 14.08 205.644 14.08H214.204C222.044 14.08 225.964 17.3867 225.964 24V29.52ZM244.378 54H230.778V0.479998H244.378V32.24L251.898 14.08H265.978L257.418 33.76L265.978 54H251.818L244.378 35.36V54Z" fill="white"/>
</svg>
